<svg width="16" height="36" viewBox="0 0 16 36" fill="none" xmlns="http://www.w3.org/2000/svg">
<path fill-rule="evenodd" clip-rule="evenodd" d="M1.29289 11.7071C1.68342 12.0976 2.31658 12.0976 2.70711 11.7071L8 6.41421L13.2929 11.7071C13.6834 12.0976 14.3166 12.0976 14.7071 11.7071C15.0976 11.3166 15.0976 10.6834 14.7071 10.2929L8.70711 4.29289C8.31658 3.90237 7.68342 3.90237 7.29289 4.29289L1.29289 10.2929C0.902369 10.6834 0.902369 11.3166 1.29289 11.7071Z" fill="black"/>
<path fill-rule="evenodd" clip-rule="evenodd" d="M1.29289 24.2929C1.68342 23.9024 2.31658 23.9024 2.70711 24.2929L8 29.5858L13.2929 24.2929C13.6834 23.9024 14.3166 23.9024 14.7071 24.2929C15.0976 24.6834 15.0976 25.3166 14.7071 25.7071L8.70711 31.7071C8.31658 32.0976 7.68342 32.0976 7.29289 31.7071L1.29289 25.7071C0.902369 25.3166 0.902369 24.6834 1.29289 24.2929Z" fill="black"/>
</svg>
